<?xml version="1.0" encoding="utf-8"?>
<!-- Generator: Adobe Illustrator 27.4.0, SVG Export Plug-In . SVG Version: 6.00 Build 0)  -->
<svg version="1.1" id="svg" xmlns="http://www.w3.org/2000/svg" xmlns:xlink="http://www.w3.org/1999/xlink" x="0px" y="0px"
	 viewBox="0 0 454.6 293.6" style="enable-background:new 0 0 454.6 293.6;" xml:space="preserve">
<style type="text/css">
	.st0{fill-rule:evenodd;clip-rule:evenodd;fill:#138ECD;}
	.st1{fill-rule:evenodd;clip-rule:evenodd;fill:#9EB5C0;}
</style>
<path id="path0" class="st0" d="M226.3,4.8c-1,0.6-3.1,1.7-4.5,2.6c-1.4,0.8-2.6,1.5-2.7,1.5c-0.1,0-1.3,0.7-2.7,1.5
	c-1.4,0.8-2.8,1.6-3.1,1.8c-0.3,0.1-0.8,0.4-1.1,0.6c-1,0.6-5.1,3-5.6,3.3c-0.3,0.1-1.3,0.7-2.3,1.3c-1,0.6-2.1,1.2-2.6,1.5
	c-0.5,0.2-1,0.5-1.1,0.6c-0.1,0.1-0.8,0.5-1.6,0.9c-2.6,1.4-3.9,2-4,2.2c-0.2,0.2-4.9,2.9-8.2,4.7c-1,0.5-2.3,1.3-3,1.7
	c-0.7,0.4-2.1,1.2-3.2,1.8c-3.3,1.8-4.3,2.4-4.7,2.7c-0.3,0.3-3,1.8-7.9,4.5c-1.1,0.6-3.1,1.8-4.5,2.6c-1.4,0.8-2.6,1.5-2.7,1.5
	c-0.1,0-1.5,0.8-3.2,1.8c-1.7,1-3.5,2.1-4,2.3l-1,0.5v29.2c0,27.7,0,29.2,0.6,29c0.3-0.1,2.2-1.2,4-2.3c1.9-1.1,3.5-2,3.6-2
	c0.1,0,1.2-0.6,2.4-1.3c1.2-0.7,2.9-1.7,3.8-2.2c3.1-1.7,7.6-4.3,10.1-5.8c1.4-0.8,2.6-1.5,2.7-1.5c0.1,0,1.6-0.8,3.3-1.9
	c1.7-1,3.5-2,3.9-2.1c0.4-0.1,2.7-1.4,5.1-2.7c2.4-1.4,5.5-3.1,6.9-4c1.4-0.8,5.8-3.3,9.7-5.5s8-4.6,9.1-5.2
	c1.2-0.6,3.1-1.7,4.2-2.5c1.2-0.7,3.1-1.8,4.3-2.4l2.2-1.2l7.6,4.4c4.2,2.4,13.1,7.5,19.8,11.3c6.7,3.8,12.6,7.2,13.2,7.5
	c0.6,0.3,4.6,2.6,8.9,5.1l7.8,4.5v10v10l-0.8-0.4c-0.4-0.2-1.3-0.8-2-1.2c-0.7-0.4-1.9-1.2-2.8-1.6c-0.9-0.5-5.9-3.4-11.2-6.4
	c-5.3-3.1-10.4-5.9-11.2-6.4c-0.9-0.5-2.2-1.2-2.9-1.7c-0.7-0.5-1.4-0.8-1.5-0.8c-0.1,0-1.3-0.7-2.7-1.5c-1.4-0.8-3.3-1.9-4.2-2.4
	c-0.9-0.5-5.2-3-9.6-5.5c-4.4-2.5-8.2-4.6-8.4-4.6c-0.3,0-3.4,1.6-5.6,3c-0.7,0.4-2.1,1.2-3.2,1.8c-1.1,0.6-5.7,3.2-10.4,5.9
	c-4.6,2.7-8.9,5.1-9.5,5.4c-0.6,0.3-3.3,1.9-6,3.4c-2.7,1.5-5.5,3.1-6.1,3.5c-0.7,0.4-3.9,2.2-7.2,4.1c-3.3,1.9-6.4,3.7-7,4
	c-1.2,0.7-3.9,2.2-13.5,7.7c-3.8,2.2-7,4.1-7.1,4.3c-0.3,0.5-0.4,39.2-0.1,40c0.1,0.3,0.4,0.6,0.7,0.6c0.3,0,0.5,0.2,0.5,0.4
	c0,0.2,0.2,0.4,0.4,0.4c0.3,0,9.1,4.9,10,5.6c0.2,0.1,1.2,0.7,2.3,1.3c1.1,0.6,4.1,2.3,6.8,3.9c2.7,1.5,5.7,3.3,6.7,3.8
	c1,0.5,2.3,1.3,3,1.7c0.7,0.4,1.9,1.2,2.8,1.6c2.2,1.2,7,4,10.5,6c1.6,1,3.7,2.1,4.6,2.6c0.9,0.5,2.2,1.3,2.9,1.7
	c0.7,0.5,1.4,0.8,1.5,0.8c0.2,0,4.6,2.6,6.1,3.5c0.3,0.2,0.8,0.4,1.1,0.6c0.3,0.1,1.8,1,3.3,1.9c12.6,7.4,10.9,6.8,14.4,4.7
	c1.5-0.9,2.7-1.6,2.8-1.6s0.8-0.4,1.5-0.8c0.7-0.5,2-1.2,2.9-1.7c0.9-0.5,2.6-1.4,3.8-2.1c1.2-0.7,2.5-1.3,2.9-1.5
	c0.7-0.2,7.9-4.3,10.6-6c0.7-0.5,1.4-0.8,1.5-0.8s1.4-0.7,2.8-1.6c1.5-0.9,2.7-1.6,2.8-1.6c0.1,0,1.1-0.6,2.4-1.4
	c1.2-0.7,4.3-2.5,6.8-3.9c2.5-1.4,6-3.4,7.7-4.4c5.1-2.9,8-4.6,9.3-5.3c0.7-0.4,3.7-2.1,6.8-3.9c3.1-1.8,5.7-3.2,5.8-3.2
	c0.1,0,0.7-0.4,1.3-0.8l1-0.8l-1.5-0.9c-0.8-0.5-2.2-1.3-2.9-1.7c-1.4-0.8-3.2-1.8-8.4-4.8c-1.4-0.8-3.3-1.9-4.4-2.5
	c-3.5-1.9-5.4-3-5.8-3.3c-0.2-0.1-1.6-1-3.2-1.8c-1.5-0.9-4.4-2.5-6.3-3.6c-1.9-1.1-4.8-2.8-6.3-3.6c-4.8-2.7-7.1-4-16-9.1
	c-4.7-2.7-9.3-5.3-10.2-5.8c-0.9-0.5-3.4-1.9-5.5-3.2l-4-2.3l-2.3,1.3c-1.3,0.7-5,2.8-8.1,4.6c-3.2,1.8-6.3,3.6-7,4
	c-0.7,0.4-3.4,2-6.1,3.5c-2.7,1.5-5.6,3.2-6.5,3.7c-0.9,0.5-4.1,2.3-7.2,4.1c-22,12.7-21.5,12.4-21.8,12.4c-0.1,0-0.1-4.5-0.1-10
	l0.1-10l5.8-3.3c3.2-1.8,8.6-5,12.1-7c3.5-2,8.1-4.7,10.3-5.9c2.2-1.3,4.1-2.3,4.1-2.3c0.1,0,2.1-1.2,4.6-2.6
	c2.4-1.4,4.5-2.6,4.6-2.6c0.1,0,1.2-0.6,2.4-1.4c1.3-0.8,2.4-1.4,2.4-1.4c0.2,0,11.2-6.4,11.6-6.7c0.4-0.4,1.7-0.4,2.1,0
	c0.2,0.2,1,0.7,1.9,1.2c2,1.1,10.9,6.2,23.5,13.4c5.3,3,10.8,6.2,12.3,6.9c4,2.2,6.3,3.4,8.7,4.9c1.2,0.7,2.3,1.3,2.4,1.3
	s1.3,0.7,2.7,1.5c3,1.8,9.5,5.6,12.1,6.9c1,0.5,2.5,1.4,3.2,1.9c0.8,0.5,1.5,0.9,1.6,0.9c0.1,0,1.2,0.6,2.5,1.4
	c1.3,0.8,2.4,1.4,2.5,1.4c0.1,0,0.2-13.5,0.2-30v-30l-2.1-1.3c-1.2-0.7-2.2-1.3-2.3-1.3s-0.9-0.5-1.8-1c-0.9-0.6-2.4-1.4-3.3-1.9
	c-0.9-0.5-9.8-5.6-19.8-11.3c-10-5.8-18.7-10.7-19.3-11.1c-0.6-0.3-3.7-2.1-7-4c-3.3-1.9-6.5-3.8-7.2-4.1c-0.7-0.4-3.6-2-6.5-3.7
	c-4-2.3-5.4-2.9-5.8-2.6c-0.3,0.2-1.5,0.9-2.7,1.5c-1.2,0.6-2.7,1.5-3.3,1.9c-0.7,0.4-2.1,1.2-3.2,1.8c-1.1,0.6-4.1,2.3-6.7,3.8
	c-2.6,1.5-5.8,3.3-7,4c-2.3,1.3-10.3,5.9-14.7,8.4c-1.3,0.7-3.1,1.8-4,2.3c-1,0.5-2.9,1.6-4.2,2.4c-2.7,1.6-12.1,6.9-12.5,7.1
	c-0.2,0.1-0.2-4.4-0.2-10l0.1-10.1l3.9-2.2c2.1-1.2,4.6-2.7,5.6-3.2c1-0.5,4.1-2.3,7-4c2.9-1.7,5.3-3,5.3-3c0.1,0,1.6-0.9,3.3-1.9
	c1.8-1.1,3.2-1.9,3.3-1.9c0.1,0,2.6-1.4,5.6-3.2s5.6-3.2,5.8-3.2s0.4-0.2,0.4-0.4c0-0.2,0.2-0.4,0.4-0.4c0.2,0,2-0.9,3.9-2.1
	c1.9-1.2,3.6-2.1,3.7-2.1c0.1,0,4.7-2.6,6.1-3.5c0.3-0.2,0.8-0.4,1.1-0.6c0.3-0.1,1.1-0.6,1.8-1.1c1.6-1,2.1-1,3.8,0.1
	c0.8,0.5,1.5,0.9,1.6,0.9s1.6,0.8,3.3,1.8s3.9,2.3,5,2.9c1.1,0.6,2.5,1.4,3.2,1.9s1.3,0.8,1.5,0.8c0.2,0,1.8,0.9,5.5,3.1
	c1.6,1,7.1,4.1,8.7,5c1,0.6,2.5,1.4,3.2,1.9c0.8,0.5,1.5,0.9,1.6,0.9c0.1,0,1.8,0.9,3.7,2.1c2,1.2,3.6,2.1,3.7,2.1
	c0.1,0,1.6,0.9,3.3,1.9c1.8,1.1,3.3,1.9,3.3,1.9c0.1,0,1.2,0.6,2.4,1.4c1.3,0.8,2.4,1.4,2.5,1.4c0.1,0,1.5,0.8,3.1,1.7
	c1.6,0.9,3.4,2,4.1,2.4c2.7,1.5,7.3,4.1,9.7,5.6c1.4,0.8,2.7,1.5,2.9,1.5c0.2,0,0.3-3.5,0.3-9.2v-9.2l-1.3-0.7
	c-0.7-0.4-1.4-0.8-1.4-0.9c-0.1-0.1-0.3-0.3-0.5-0.3c-0.2,0-1.3-0.6-2.5-1.3c-1.2-0.7-2.7-1.6-3.4-2c-0.7-0.4-2.6-1.5-4.2-2.5
	c-1.6-1-3.8-2.2-4.7-2.7c-2.7-1.5-4.1-2.3-10.4-5.9c-3.2-1.8-7-4-8.5-4.9c-4.1-2.3-4.2-2.4-4.7-2.8c-0.3-0.2-0.6-0.4-0.8-0.4
	c-0.2,0-1.4-0.6-2.6-1.4c-1.3-0.8-2.4-1.4-2.4-1.4c-0.1,0-1.7-0.9-3.7-2.1c-2-1.2-3.6-2.1-3.7-2.1c-0.1,0-1.6-0.9-3.3-1.9
	c-1.8-1.1-3.2-1.9-3.3-1.9c-0.1,0-1.7-0.9-3.7-2.1c-2-1.2-3.6-2.1-3.7-2.1c-0.1,0-1.1-0.6-2.3-1.3C228.5,3.6,228.5,3.6,226.3,4.8
	 M353,235.1c-10.6,1.9-18.4,9.3-21.5,20.2c-1.1,3.9-0.8,4.2,5,4.2c4.4,0,4.7-0.1,5.5-2.6c5.2-15.8,27.5-15.9,32.5-0.1
	c0.9,2.8,0.8,2.7,6.1,2.8c4.7,0,5.2-0.3,4.8-3C383.7,242.4,368.4,232.3,353,235.1 M4.8,236.2C4,237,3.9,287.6,4.7,288.3
	c0.3,0.3,2,0.4,5,0.3l4.5-0.1l0.1-26c0.1-24.1,0-26-0.5-26.4C12.9,235.4,5.5,235.5,4.8,236.2 M21.1,236.2c-0.7,0.5-0.8,0.8-0.8,4.6
	c0,5.6-0.8,5.2,9.1,5.2c10,0,9.1,0.5,9.1-5c0-5.7,0.5-5.4-9-5.4C23.2,235.7,21.8,235.7,21.1,236.2 M52.6,236.2
	c-0.5,0.6,0.2,2.2,2.9,6.8c0.5,0.9,1.5,2.6,2.1,3.9c5,9.4,10.3,18.7,10.7,18.8c0.8,0.3,1.5-0.6,3.7-4.9c2.5-4.9,2.4-4.5,0.7-7.7
	c-0.7-1.4-2.7-5.1-4.3-8.2c-3.8-7.4-4.6-8.7-5-9C62.5,235.4,53.1,235.6,52.6,236.2 M91.4,236.1c-0.3,0.4-4.2,7.9-17.3,33.8
	c-3.7,7.3-7.2,14.2-7.8,15.2c-1.1,2.1-1.2,3-0.4,3.3c0.8,0.3,9.7,0.3,10.2-0.1c0.2-0.1,3.8-7,8-15.3c4.2-8.3,10-19.8,13-25.5
	c4.4-8.6,5.2-10.5,4.9-11.1C101.4,235.6,92,235.3,91.4,236.1 M117.7,236.2l-0.8,0.5V262c0,16.7,0.1,25.5,0.4,25.9
	c0.4,0.8,9,1,9.7,0.3c0.7-0.7,0.6-51.3-0.1-52C126.1,235.4,118.8,235.4,117.7,236.2 M133.7,236.4c-0.9,0.9-1.1,8.4-0.2,9.3
	c0.6,0.6,11.9,0.9,13.3,0.3c0.9-0.4,0.8-9.4-0.1-10C145.3,235.3,134.5,235.6,133.7,236.4 M161.9,236.2l-0.8,0.6v25.2
	c0,26.1,0,26,1.4,26c0.3,0,3.6-3.1,7.4-6.9c3.7-3.8,12.2-12.4,18.8-19.2l12-12.2v-6.3c0-9.2,1.2-9.8-14.3,6
	c-12.2,12.3-13.8,13.8-14.6,12.9c0,0-0.2-5.9-0.3-13c-0.1-7.1-0.3-13-0.5-13.2C170.5,235.5,162.7,235.6,161.9,236.2 M218.6,236
	c-0.7,0.4-1,50.7-0.3,52c0.4,0.8,8.9,1.1,9.8,0.3c0.3-0.3,0.4-6.6,0.4-25.9v-25.5l-0.8-0.5C226.8,235.6,219.6,235.4,218.6,236
	 M252.1,236l-0.8,0.3v25.9c0,23.3,0.1,26,0.6,26.2c1.1,0.4,8.8,0.2,9.2-0.2c0.8-0.8,0.6-51.8-0.3-52.2
	C259.9,235.6,253.2,235.6,252.1,236 M278.9,236.1c-0.8,0.6-0.9,51.8-0.1,52.3c1.1,0.7,9,0.3,9.4-0.4c0.6-1.2,0.3-51.5-0.3-52
	C287,235.5,279.6,235.6,278.9,236.1 M308.9,235.9c-0.5,0.2-8.1,11.5-8.1,12.1c0,0.7,5.5,7.9,6.2,8c0.7,0.1,13.1-17.9,13.1-19
	C320.1,235.8,311.1,235,308.9,235.9 M400.3,237.1c-0.1,0.4-0.2,3.1-0.2,6c0,6.1-0.7,4.9,7,11.7c2.8,2.5,5.3,4.7,5.5,4.9
	c0.2,0.2,1.5,1.3,2.8,2.5c1.3,1.2,3.6,3.2,5.1,4.5c3.6,3.3,5.3,4.5,5.8,4.2c0.6-0.3,7.1-6.1,10.1-8.9c4.7-4.5,4.8-4.4,4.8,12.4
	c0,10.1,0.1,13.7,0.4,14c0.7,0.7,9.3,0.6,9.5-0.1c0.3-0.7,0.3-50.5,0-51.2c-0.6-1.5-0.1-1.8-15,11.5c-3.9,3.5-7.6,6.8-8.4,7.5
	c-2.2,1.9-0.2,3.3-21-15.3C401.9,236.3,400.7,235.6,400.3,237.1 M293.6,258.3l-2.7,4.1l2.2,3.1c4.8,6.9,16.1,22.4,16.5,22.8
	c1,0.9,11.2,0.3,11.4-0.6c0.1-0.8-1.7-3.4-11.5-17.1c-7.4-10.3-8.7-12.1-10.1-14.1C297.2,253.3,296.9,253.4,293.6,258.3 M20.9,257.6
	c-0.4,0.4-0.6,1.4-0.6,4.5c0,5.4,0.1,5.5,4.4,5.5c3.9,0,4.8,0.4,6.2,2.6c2.8,4.2-0.6,8.3-6.8,8.3c-3.9,0-3.9,0-3.9,5.3
	c0,5-0.2,4.8,4.7,4.8c17.7,0,23.8-21.6,8.4-29.9C30.5,257.1,22.2,256.4,20.9,257.6 M233.4,257.4c-0.8,0.5-0.6,9.2,0.2,9.8
	c1,0.8,11.8,0.6,12.5-0.2c0.8-0.9,0.9-8.5,0-9.3C245.5,257,234.4,256.8,233.4,257.4 M400.6,258.3c-0.7,0.7-0.8,29.2-0.1,29.9
	c0.8,0.8,9.3,0.6,9.7-0.3c0.2-0.4,0.4-4.7,0.4-11.4v-10.7l-1.8-1.8C403.1,258.7,401.4,257.5,400.6,258.3 M194.7,264l-4.2,4.2v9.7
	c0,5.3,0.1,9.9,0.2,10.2c0.3,0.8,8.9,0.8,9.6,0.1c0.3-0.3,0.4-4.4,0.3-14.3l-0.1-13.8l-0.8-0.1C199.1,259.8,198.1,260.6,194.7,264"
	/>
<path id="path1" class="st1" d="M226.4,4.3c-0.9,0.5-2.9,1.7-4.5,2.6c-1.6,0.9-3,1.7-3.1,1.7s-1.2,0.6-2.4,1.4
	c-1.3,0.8-2.4,1.4-2.5,1.4c-0.1,0-1.3,0.7-2.7,1.5c-1.4,0.8-5,2.9-8,4.6c-7.1,4-7.8,4.4-7.6,4.6c0.1,0.1,1-0.3,2-0.9
	c1-0.6,1.9-1.1,2.1-1.1c0.2,0,0.5-0.2,0.8-0.4c0.3-0.2,0.9-0.6,1.3-0.9c0.5-0.2,1.7-0.9,2.6-1.5c1-0.6,2-1.2,2.3-1.3
	c0.5-0.2,4.7-2.7,5.6-3.3c0.3-0.2,0.8-0.4,1.1-0.6c0.3-0.1,1.7-0.9,3.1-1.8c1.4-0.8,2.6-1.5,2.7-1.5c0.1,0,1.2-0.6,2.4-1.4
	c4-2.5,6.7-3.8,7.2-3.6c0.3,0.1,1.5,0.8,2.7,1.5c1.2,0.7,2.3,1.3,2.3,1.3c0.1,0,1.7,0.9,3.7,2.1c2,1.2,3.6,2.1,3.7,2.1
	c0.1,0,1.6,0.9,3.3,1.9c1.8,1.1,3.3,1.9,3.3,1.9c0.1,0,1.8,0.9,3.7,2.1c1.9,1.2,3.6,2.1,3.7,2.1c0.1,0,1.2,0.6,2.4,1.4
	c1.3,0.8,2.4,1.4,2.6,1.4c0.2,0,0.5,0.2,0.8,0.4c0.5,0.5,0.6,0.5,4.7,2.8c1.5,0.8,5.3,3,8.5,4.9c6.2,3.6,7.6,4.4,10.4,5.9
	c1,0.5,3.1,1.8,4.7,2.7c1.6,1,3.5,2.1,4.2,2.5c0.7,0.4,2.2,1.3,3.4,2c1.2,0.7,2.3,1.3,2.5,1.3c0.2,0,0.4,0.1,0.5,0.3
	c0.1,0.1,0.7,0.6,1.4,0.9l1.3,0.7v9.2c0,5.7-0.1,9.2-0.3,9.2c-0.2,0-1.5-0.7-2.9-1.5c-2.4-1.4-7.1-4.1-9.7-5.6
	c-0.7-0.4-2.5-1.5-4.1-2.4c-1.6-0.9-3-1.7-3.1-1.7c-0.1,0-1.2-0.6-2.5-1.4c-1.3-0.8-2.4-1.4-2.4-1.4c-0.1,0-1.6-0.9-3.3-1.9
	c-1.8-1.1-3.2-1.9-3.3-1.9c-0.1,0-1.7-0.9-3.7-2.1c-2-1.2-3.6-2.1-3.7-2.1c-0.1,0-0.8-0.4-1.6-0.9c-0.8-0.5-2.2-1.3-3.2-1.9
	c-1.6-0.9-7.1-4-8.7-5c-3.7-2.2-5.3-3.1-5.5-3.1c-0.1,0-0.8-0.4-1.5-0.8s-2.1-1.3-3.2-1.9c-1.1-0.6-3.3-1.9-5-2.9s-3.1-1.8-3.3-1.8
	s-0.8-0.4-1.6-0.9c-2-1.2-2.2-1.2-5.8,1.1c-0.4,0.2-0.9,0.5-1.2,0.7c-0.3,0.1-1.7,0.9-3.1,1.8c-1.4,0.8-2.6,1.5-2.7,1.5
	c-0.1,0-1.7,0.9-3.7,2.1c-1.9,1.2-3.7,2.1-3.9,2.1c-0.2,0-0.4,0.2-0.4,0.4c0,0.2-0.2,0.4-0.4,0.4s-2.8,1.4-5.8,3.2s-5.5,3.2-5.6,3.2
	c-0.1,0-1.6,0.9-3.3,1.9c-1.8,1.1-3.2,1.9-3.3,1.9c-0.1,0-2.5,1.4-5.3,3c-2.9,1.7-6,3.5-7,4c-1,0.5-3.5,2-5.6,3.2l-3.9,2.2
	l-0.1,10.1c-0.1,5.6,0,10.1,0.2,10c0.5-0.2,9.9-5.6,12.5-7.1c1.4-0.8,3.2-1.9,4.2-2.4c1-0.5,2.8-1.6,4-2.3
	c4.4-2.6,12.5-7.2,14.7-8.4c1.3-0.7,4.4-2.5,7-4c2.6-1.5,5.6-3.2,6.7-3.8c1.1-0.6,2.5-1.4,3.2-1.8c0.7-0.4,2.2-1.3,3.3-1.9
	c1.2-0.6,2.3-1.3,2.6-1.5c0.5-0.3,0.5-1.7,0.4-9.9c-0.1-8.1,0-9.6,0.4-9.6c0.3,0,5.2,2.7,11,6c5.8,3.3,11.5,6.6,12.8,7.3
	c1.3,0.7,3.9,2.2,5.8,3.3c1.9,1.1,4.9,2.8,6.5,3.7c1.6,0.9,5.3,3,8.2,4.7c2.9,1.7,5.3,3,5.3,3c0.1,0,1.7,0.9,3.7,2.1
	c2,1.2,3.6,2.1,3.7,2.1c0.1,0,1.5,0.9,3.3,1.9c1.8,1.1,3.3,1.9,3.3,1.9c0.1,0,2.4,1.3,5.2,3c6.9,4,6.2,4.8,6.2-6.6v-9.6l-1.5-0.9
	c-0.8-0.5-2-1.2-2.7-1.6c-0.7-0.4-3.9-2.2-7.2-4.1c-3.3-1.9-6.7-3.8-7.5-4.3c-0.9-0.5-3.6-2.1-6.1-3.5s-5.3-3-6.1-3.5
	c-2.6-1.4-5.1-2.9-5.6-3.2c-0.3-0.2-3.4-1.9-6.8-3.9c-6.3-3.5-8.7-5-15.3-8.8c-1.9-1.1-3.5-2-3.6-2c-0.1,0-1.6-0.9-3.4-1.9
	c-1.8-1.1-3.3-1.9-3.4-1.9c-0.1,0-1.3-0.7-2.8-1.6C228.5,3.1,228.4,3.1,226.4,4.3 M194.4,22.6c-0.3,0.1-1.9,1-3.6,2.1
	c-1.7,1-3.1,1.9-3.2,1.9c-0.1,0-2.6,1.4-5.7,3.2c-3.1,1.8-6.3,3.6-7.1,4.1c-0.9,0.5-2.3,1.3-3.3,1.9c-0.9,0.6-1.8,1-1.8,1
	c-0.1,0-1.6,0.9-3.3,1.9c-1.8,1.1-3.2,1.9-3.3,1.9c-0.1,0-1.3,0.7-2.7,1.5c-1.4,0.8-3.5,2-4.7,2.7s-2.4,1.3-2.7,1.5
	c-0.6,0.3-0.6,4.2-0.6,60.3l0,59.9l10.4,5.9c5.7,3.3,10.9,6.3,11.6,6.6c0.7,0.4,2.5,1.4,4,2.3c1.5,0.9,2.8,1.6,2.9,1.6
	c0.1,0,1.7,0.9,3.7,2.1c1.9,1.2,3.6,2.1,3.7,2.1c0.1,0,2.8,1.6,6.2,3.5c3.3,1.9,6.1,3.5,6.2,3.5s1.2,0.6,2.4,1.4
	c1.3,0.8,2.4,1.4,2.5,1.4c0.1,0,1.2,0.7,2.5,1.5s3.6,2.1,5,2.9c1.4,0.8,4.8,2.7,7.4,4.2c7.3,4.2,6.3,3.9,8.7,2.5
	c2-1.2,2.6-1.6,6.6-3.7c1.2-0.6,3.4-1.9,5-2.9c1.6-0.9,3-1.7,3.2-1.7s0.5-0.2,0.6-0.4c0.4-0.6-1-0.1-3.5,1.3
	c-1.2,0.7-2.9,1.6-3.8,2.1c-0.9,0.5-2.2,1.3-2.9,1.7c-0.7,0.5-1.4,0.8-1.5,0.8s-1.4,0.7-2.8,1.6c-3.3,2-2.8,2-7.5-0.8
	c-2.2-1.3-5.4-3.1-7-4c-1.6-0.9-3.2-1.9-3.5-2.1c-0.3-0.2-0.8-0.4-1.1-0.6c-0.3-0.1-1.7-0.9-3-1.8c-1.4-0.8-2.6-1.5-2.7-1.5
	c-0.1,0-0.8-0.4-1.5-0.8c-0.7-0.5-2-1.2-2.9-1.7c-0.9-0.5-2.9-1.7-4.6-2.6c-3.5-2-8.3-4.8-10.5-6c-0.9-0.5-2.1-1.2-2.8-1.6
	c-0.7-0.4-2-1.2-3-1.7c-1-0.5-4-2.2-6.7-3.8c-2.7-1.5-5.8-3.3-6.8-3.9c-1.1-0.6-2.1-1.2-2.3-1.3c-0.9-0.7-9.7-5.6-10-5.6
	c-0.2,0-0.4-0.2-0.4-0.4c0-0.2-0.2-0.4-0.5-0.4c-0.3,0-0.6-0.2-0.7-0.6c-0.3-0.8-0.3-39.5,0.1-40c0.1-0.2,3.3-2.2,7.1-4.3
	c9.6-5.5,12.3-7,13.5-7.7c0.6-0.3,3.8-2.2,7-4c3.3-1.9,6.5-3.7,7.2-4.1c0.7-0.4,3.4-2,6.1-3.5c2.7-1.5,5.4-3.1,6-3.4
	c0.6-0.3,4.8-2.8,9.5-5.4c4.6-2.7,9.3-5.3,10.4-5.9c1.1-0.6,2.5-1.4,3.2-1.8c5.5-3.4,5.3-3.4,8.7-1.4c3.3,1.9,4.7,2.7,4.7,2.5
	c0-0.1-4.6-2.9-6.8-4.1l-1.1-0.6l-0.1-8.6c-0.1-8.5,0-10.1,0.6-10.1c0.2,0,3.9,2.1,8.3,4.6c4.4,2.5,8.1,4.5,8.1,4.4
	c0.1-0.1-3.7-2.3-8.3-5l-8.5-4.8l-2.2,1.2c-1.2,0.6-3.1,1.7-4.3,2.4c-1.2,0.7-3.1,1.8-4.2,2.5c-1.2,0.6-5.3,3-9.1,5.2
	s-8.2,4.7-9.7,5.5c-1.4,0.8-4.6,2.6-6.9,4c-2.4,1.4-4.6,2.6-5.1,2.7c-0.4,0.1-2.2,1.1-3.9,2.1c-1.7,1-3.2,1.9-3.3,1.9
	c-0.1,0-1.3,0.7-2.7,1.5c-2.5,1.5-7,4.1-10.1,5.8c-0.9,0.5-2.6,1.5-3.8,2.2c-1.2,0.7-2.3,1.3-2.4,1.3c-0.1,0-1.7,0.9-3.6,2
	c-1.9,1.1-3.7,2.1-4,2.3c-0.6,0.2-0.6-1.3-0.6-29V47l1-0.5c0.5-0.3,2.4-1.3,4-2.3c1.7-1,3.1-1.8,3.2-1.8c0.1,0,1.3-0.7,2.7-1.5
	c1.4-0.8,3.4-2,4.5-2.6c4.9-2.8,7.6-4.3,7.9-4.5c0.4-0.3,1.4-0.8,4.7-2.7c1.1-0.6,2.5-1.4,3.2-1.8c0.7-0.4,2-1.2,3-1.7
	C194.6,23.1,196.8,21.7,194.4,22.6 M230.6,43.8c3.3,2,6.9,3.9,6,3.1c-0.5-0.4-1.6-1.1-2.6-1.6c-1-0.5-2.4-1.3-3.2-1.8
	c-0.8-0.5-1.6-0.8-1.8-0.9C228.8,42.7,229.5,43.2,230.6,43.8 M237.8,47.9c0.2,0.2,1.2,0.8,2.3,1.4c1.1,0.6,3.1,1.8,4.6,2.6
	c3.2,1.9,4.9,2.8,4.9,2.6c0-0.1-3.5-2.2-6.1-3.7c-0.8-0.4-2.3-1.3-3.4-2C238.1,47.6,237.1,47.2,237.8,47.9 M249.9,54.7
	c0,0.1,1.6,1.1,4.4,2.7c0.8,0.4,3.1,1.7,5.1,2.9c2,1.2,3.8,2.2,3.9,2.3c0.1,0.1,0.3,0.1,0.3,0c0-0.1-1.5-1.1-3.4-2.2
	c-1.9-1.1-4.9-2.8-6.6-3.9C250.4,54.7,249.9,54.4,249.9,54.7 M263.9,62.8c0,0.1,2.6,1.6,5.7,3.4c3.1,1.8,6.2,3.5,6.8,3.9
	c0.6,0.4,1.1,0.6,1.1,0.4c0-0.2-1.2-1-2.7-1.8c-3.9-2.2-6.3-3.5-8.6-4.9C264.4,62.7,263.9,62.5,263.9,62.8 M278,70.9
	c0.2,0.2,10,5.8,15,8.6c1,0.6,2.7,1.5,3.6,2.1c1,0.6,1.8,1,1.9,0.9c0.1-0.1-0.4-0.4-1-0.8c-0.6-0.3-1.4-0.8-1.8-1
	c-0.3-0.2-1-0.6-1.6-0.9c-0.5-0.3-4.4-2.5-8.5-4.8C279,71.2,277.4,70.3,278,70.9 M245.7,72.8c0,0.2,0.1,0.4,0.3,0.4s1.7,0.8,3.4,1.8
	c1.7,1,3.7,2.1,4.4,2.5c0.7,0.4,2.1,1.2,3.3,1.9c1.1,0.7,2.1,1.2,2.2,1.1s-2.3-1.6-5.4-3.3c-3-1.7-6.1-3.5-6.9-3.9
	C246.3,72.8,245.7,72.6,245.7,72.8 M260.2,81c0.4,0.3,3.2,2,6.3,3.8c17.7,10,18.8,10.7,18.9,11.8c0.1,0.9,0.1,0.9,0.2-0.1
	c0.1-1.1-3.1-3.2-17.1-10.9c-0.9-0.5-2.1-1.2-2.8-1.6C263.6,82.6,259.5,80.5,260.2,81 M299,82.8c0,0.1,0.9,0.7,1.9,1.3l1.9,1.1v30
	c0,16.5-0.1,30-0.2,30c-0.1,0-1.2-0.6-2.5-1.4c-1.3-0.8-2.4-1.4-2.5-1.4c-0.1,0-0.8-0.4-1.6-0.9c-0.8-0.5-2.2-1.3-3.2-1.9
	c-2.6-1.4-9.1-5.1-12.1-6.9c-1.4-0.8-2.6-1.5-2.7-1.5s-1.1-0.6-2.4-1.3c-2.5-1.5-5.9-3.4-7.5-4.2c-1.1-0.5-11.7-6.6-27.5-15.6
	c-4.9-2.8-9-5.1-9-5c-0.1,0.1,4,2.7,4.3,2.7c0.1,0,1.6,0.9,3.3,1.9s3.3,1.9,3.4,1.9c0.1,0,1.5,0.8,3.1,1.7c1.6,0.9,3.4,2,4.1,2.4
	c2.7,1.5,7.3,4.1,9.7,5.6c1.4,0.8,2.6,1.5,2.7,1.5c0.1,0,0.8,0.4,1.6,0.9c0.8,0.5,2.3,1.4,3.4,2c1.1,0.6,4.2,2.4,6.9,3.9
	c2.7,1.5,5.6,3.2,6.5,3.7c0.9,0.5,2.2,1.3,2.9,1.7c0.7,0.5,1.4,0.8,1.5,0.8c0.1,0,1.5,0.8,3.1,1.7c1.6,0.9,3.5,2,4.1,2.4
	c0.7,0.4,3.3,1.9,5.9,3.4c2.6,1.5,4.8,2.6,5,2.5c0.6-0.4,0.4-60-0.2-60.7C302.4,84.4,299,82.5,299,82.8 M236.5,87
	c0,0.1,4.9,3,9.8,5.8c0.9,0.5,2.7,1.6,4.2,2.4c1.4,0.8,2.6,1.5,2.7,1.5c0.1,0,0.7,0.4,1.5,0.8c0.7,0.5,2.1,1.3,3.1,1.8
	c1,0.5,2.5,1.4,3.3,1.9c0.9,0.5,1.4,0.7,1.3,0.5c-0.1-0.2-0.7-0.6-1.2-0.9c-0.5-0.3-3-1.7-5.5-3.1c-2.5-1.5-5.3-3-6.1-3.5
	c-0.9-0.5-4.1-2.3-7.1-4.1C237.1,87,236.5,86.7,236.5,87 M285.5,104.4c0,3.8,0.1,5.3,0.1,3.4c0.1-1.9,0.1-5,0-6.8
	C285.5,99.1,285.5,100.6,285.5,104.4 M262.9,102.1c0,0.1,2.6,1.6,5.7,3.4c6.9,3.9,6.2,3.6,6.2,3.4c0-0.2-5.2-3.3-8.2-5
	c-1-0.5-2.1-1.2-2.4-1.4C263.4,102,262.9,101.8,262.9,102.1 M227.2,103.3c-0.4,0.3-11.4,6.7-11.6,6.7c-0.1,0-1.2,0.6-2.4,1.4
	c-1.3,0.8-2.4,1.4-2.4,1.4c-0.1,0-2.1,1.2-4.6,2.6c-2.4,1.4-4.5,2.6-4.6,2.6c-0.1,0-1.9,1-4.1,2.3c-2.2,1.3-6.8,3.9-10.3,5.9
	c-3.5,2-8.9,5.1-12.1,7l-5.8,3.3l-0.1,10c-0.1,5.5,0,10,0.1,10c0.2,0-0.3,0.3,21.8-12.4c3.1-1.8,6.3-3.6,7.2-4.1
	c0.9-0.5,3.8-2.1,6.5-3.7c2.7-1.5,5.5-3.1,6.1-3.5c0.7-0.4,3.8-2.2,7-4c3.2-1.8,6.8-3.9,8.1-4.6l2.3-1.3l4,2.3
	c2.2,1.2,4.7,2.7,5.6,3.2c0.9,0.5,2.3,1.3,3.2,1.8c0.9,0.5,1.4,0.7,1.2,0.5c-0.4-0.4-7.5-4.7-7.7-4.7c-0.1,0-1.3-0.7-2.7-1.5
	c-1.4-0.8-2.8-1.6-3.2-1.7c-0.6-0.2-1-19.6-0.4-19.6c0.1,0,0.8,0.3,1.4,0.7c0.6,0.4,1.2,0.7,1.3,0.6
	C231.8,104,227.9,102.7,227.2,103.3 M275.1,109.1c0,0.1,4.2,2.7,4.4,2.7c0.1,0,1.1,0.6,2.3,1.3c4,2.4,3.8,2.4,3.7,0.9
	c0-1.2-0.1-1.2-0.3-0.4l-0.2,1l-2-1.2c-1.1-0.7-2.1-1.2-2.2-1.2c-0.1,0-1.3-0.7-2.7-1.6C275.7,109.1,275.1,108.8,275.1,109.1
	 M242.9,131.3c0.2,0.2,11.4,6.7,15.4,8.9c1.3,0.7,2.1,1,1.8,0.7c-0.3-0.3-0.6-0.6-0.7-0.6c-0.1,0-2.6-1.4-5.5-3
	c-2.9-1.7-6.1-3.5-7.2-4.1c-1.1-0.6-2.2-1.3-2.6-1.5C243.4,131.1,242.5,130.9,242.9,131.3 M261.3,141.8c0.8,0.6,4,2.3,4,2.1
	c0-0.2-4.2-2.7-4.5-2.7C260.7,141.3,260.9,141.5,261.3,141.8 M265.7,144.2c0,0.2,7.1,4.3,10.2,5.9c1.1,0.6,1.6,0.7,1.1,0.4
	c-0.4-0.4-1.5-1-2.5-1.5c-0.9-0.5-2.6-1.5-3.8-2.2C268.2,145.3,265.7,144,265.7,144.2 M277.9,151.2c0,0.1,4.2,2.7,4.4,2.7
	c0.1,0,0.9,0.5,1.9,1.1c1,0.6,1.9,1,2,0.9c0.1-0.1-0.1-0.3-0.5-0.5c-0.4-0.1-2.2-1.2-4.1-2.3C278.4,151.2,277.9,150.9,277.9,151.2
	 M286.7,156.1c0,0.2,4,2.6,5.9,3.5c1.6,0.8,1.4,0.4-0.4-0.6C289.4,157.4,286.7,156,286.7,156.1 M294.1,160.3c0,0.1,1.6,1.1,4.4,2.7
	c0.8,0.4,2.1,1.2,2.9,1.7l1.5,0.9l-1,0.8c-0.6,0.4-1.1,0.8-1.3,0.8c-0.3,0-11.2,6.3-11.7,6.7c-0.3,0.3,2.3-1,3.7-1.8
	c2.2-1.3,5.3-3.1,5.4-3.1c0.5,0,5.1-3,5.1-3.3c0-0.2-0.4-0.7-1-0.9c-0.5-0.3-2.5-1.4-4.3-2.5C294.7,160.3,294.1,160,294.1,160.3
	 M286.8,175c-0.6,0.4-1.1,0.8-1,0.9c0.2,0.2,2.7-1.3,2.7-1.5C288.5,174.1,287.9,174.3,286.8,175 M280.2,178.8
	c-3.6,2-4.9,3.1-1.7,1.4c4-2.2,5.6-3.2,5-3.2C283.4,177.1,281.9,177.9,280.2,178.8 M270.6,184.4c-3,1.7-6.1,3.5-6.9,4
	c-0.8,0.5-1.5,0.9-1.6,0.9c-0.1,0-1.4,0.7-2.8,1.6c-1.5,0.9-2.7,1.6-2.8,1.6c-0.1,0-1.5,0.8-3.2,1.9c-1.7,1-4.2,2.5-5.5,3.2
	c-1.3,0.7-2.3,1.4-2.2,1.5c0.1,0.1,1.8-0.8,3.7-2c2-1.2,3.6-2.1,3.7-2.1c0.1,0,1.2-0.6,2.4-1.4c1.3-0.8,2.4-1.4,2.5-1.4
	s1.8-0.9,3.7-2.1c2-1.2,3.6-2.1,3.7-2.1c0.1,0,1.5-0.8,3.2-1.8c1.7-1,3.8-2.2,4.7-2.7c1.6-0.8,3.4-2.1,3.1-2.1
	C276.1,181.3,273.6,182.7,270.6,184.4 M351.7,234.9c-0.6,0.2-1.2,0.4-1.4,0.5c-0.2,0.2,1.8,0,3.7-0.5l1.2-0.3l-1.2,0
	C353.4,234.7,352.3,234.8,351.7,234.9 M362.5,234.9c2.2,0.5,4.1,0.8,3.5,0.4c-0.3-0.2-1.5-0.4-2.6-0.5
	C361.8,234.7,361.6,234.7,362.5,234.9 M55.9,235.6c1.3,0.1,3.4,0.1,4.7,0c1.3-0.1,0.2-0.1-2.4-0.1C55.7,235.4,54.6,235.5,55.9,235.6
	 M94.3,235.6c1.2,0.1,3.2,0.1,4.4,0c1.2-0.1,0.2-0.1-2.2-0.1C94.1,235.4,93.1,235.5,94.3,235.6 M13.8,236.1
	c0.6,0.4,0.6,2.3,0.5,26.4l-0.1,26l-4.5,0.1c-3,0.1-4.7,0-5-0.3c-0.3-0.2-0.5-0.3-0.5,0c0,1,9.4,1.2,10.3,0.2
	c0.5-0.5,0.6-3.3,0.6-26c0-25.8,0-26.8-1.3-26.8C13.3,235.7,13.3,235.7,13.8,236.1 M20.5,236c-0.4,0.6,0,0.7,0.7,0.1
	c0.6-0.4,0.6-0.5,0.1-0.5C21,235.7,20.7,235.8,20.5,236 M37.9,236.4c0.8,0.8,1.1,8,0.4,9.1c-0.3,0.4-1.7,0.5-8.8,0.5
	c-7.1,0-8.5-0.1-8.8-0.5c-0.2-0.3-0.3-0.4-0.3-0.2c0,1.1,0.9,1.2,9.1,1.2c10.2,0,9.5,0.5,9.5-5.7c0-4.4-0.2-5.2-1.3-5.2
	C37.4,235.7,37.5,235.9,37.9,236.4 M52.3,236.2c-0.5,0.5,1.5,5.4,2,5c0.1-0.1-0.3-1.1-1-2.2c-0.9-1.7-1.1-2.1-0.7-2.7
	C53.1,235.5,52.9,235.4,52.3,236.2 M63.6,236.1c0.3,0.3,1.2,1.7,1.9,3.1c1.3,2.5,2.2,3.9,1.7,2.6c-0.6-1.7-3.2-5.9-3.7-6.1
	C63.1,235.6,63.2,235.7,63.6,236.1 M88.8,239.9c-1.2,2.3-2.1,4.3-2,4.4c0.1,0.1,1.2-1.8,2.4-4.3c1.2-2.4,2.1-4.4,2-4.4
	C91.1,235.7,90,237.6,88.8,239.9 M101.8,236.3c0.4,0.6,0.3,1.1-1.1,3.8c-1.9,3.8-2.1,4.3-1.8,4.3c1.2-0.1,4-8.3,2.9-8.7
	C101.5,235.6,101.5,235.7,101.8,236.3 M117,236c-0.4,0.6,0,0.7,0.7,0.1c0.6-0.4,0.6-0.5,0.1-0.5C117.5,235.7,117.2,235.8,117,236
	 M126.8,236.2c0.7,0.7,0.9,51.3,0.1,52c-0.7,0.7-9.3,0.6-9.7-0.2c-0.3-0.5-0.4-0.5-0.4,0c0,1,8.5,1.6,10.2,0.6
	c0.7-0.4,0.7-1,0.7-26.2c0-25.9,0-26.7-1.1-26.7C126.4,235.7,126.5,235.9,126.8,236.2 M133.1,236.2c-0.3,0.8,0,0.8,0.7,0.1
	c0.5-0.5,0.5-0.6,0.1-0.6C133.6,235.7,133.3,235.9,133.1,236.2 M146.8,236c0.9,0.5,0.9,9.6,0.1,10c-1.3,0.5-12.7,0.2-13.3-0.3
	c-0.3-0.3-0.6-0.4-0.6-0.2c0,1,1,1.1,7.4,1.1c5.2,0,6.6-0.1,7-0.5c0.8-1,0.3-10.2-0.5-10.3C146.2,235.6,146.2,235.7,146.8,236
	 M161.3,236c-0.4,0.6,0,0.7,0.7,0.1c0.6-0.4,0.6-0.5,0.1-0.5C161.7,235.7,161.4,235.8,161.3,236 M170.6,235.9c0.9,0.2,1,1.1,1,13.5
	c0,6.5,0.1,12.1,0.2,12.4c0.6,1.6,1.8,0.6,14.6-12.5c15.5-15.7,14.3-15.2,14.3-6v6.3l-12,12.2c-6.6,6.7-15.1,15.4-18.8,19.2
	c-6.6,6.7-7.5,7.4-8.3,6.5c-0.3-0.3-0.4-0.3-0.4,0c0,0.2,0.4,0.5,0.9,0.6c1,0.3-0.1,1.3,32.3-31.5l6.8-6.9v-6.3
	c0-6.5-0.2-7.5-1.7-7.5c-0.2,0-6.1,5.9-13.2,13c-9.1,9.3-13,13-13.5,12.9c-0.6-0.1-0.6-0.8-0.7-12.7c-0.1-12.8-0.2-13.6-1.4-13.5
	C170.1,235.7,170.1,235.8,170.6,235.9 M218,236.1c-0.7,0.7-0.6,51.6,0.1,52.4c1,1,10.3,0.8,10.3-0.3c0-0.3-0.1-0.2-0.4,0
	c-0.8,0.8-9.3,0.6-9.8-0.3c-0.6-1.2-0.3-51.5,0.3-52c0.3-0.2,0.4-0.3,0.2-0.3C218.6,235.7,218.2,235.8,218,236.1 M227.6,236.2
	c0.7,0.5,1.1,0.5,0.7-0.1c-0.1-0.2-0.5-0.4-0.8-0.4C227,235.7,227,235.7,227.6,236.2 M251.3,236.1c-0.6,0.6-0.6,51.9,0,52.5
	c0.5,0.5,8.8,0.6,9.8,0.1c0.7-0.4,0.7-1,0.7-26.1c0-26.4,0-26.9-1-26.9c-0.5,0-0.5,0.1,0,0.4c0.8,0.5,1,51.4,0.2,52.2
	c-0.4,0.4-8.1,0.6-9.2,0.2c-0.5-0.2-0.6-2.8-0.6-26.2v-25.9l0.8-0.3c0.5-0.2,0.6-0.3,0.2-0.3C252,235.7,251.6,235.8,251.3,236.1
	 M278.1,236.2c-0.3,0.8,0,0.8,0.7,0.1c0.5-0.5,0.5-0.6,0.1-0.6C278.5,235.7,278.2,235.9,278.1,236.2 M287.8,236
	c0.7,0.4,1,50.7,0.3,52c-0.4,0.7-8.3,1.1-9.4,0.4c-0.3-0.2-0.5-5.9-0.5-25.7l-0.1-25.4l-0.1,25.7c-0.1,23.1,0,25.7,0.5,25.9
	c1.3,0.5,9.2,0.2,9.8-0.3c0.5-0.5,0.6-3.3,0.6-26c0-25.2-0.1-26.8-1.2-26.8C287.4,235.7,287.4,235.8,287.8,236 M304.3,241.6
	c-4.6,7-4.4,6.1-2,9.4c5.1,7.1,4,7.5,11.8-4.2c3.4-5.1,6.2-9.5,6.2-9.8c0-0.6-0.7-1.4-1.2-1.4c-0.2,0-0.1,0.2,0.2,0.4
	c1,0.6,0.8,1.1-5.6,10.7c-5,7.5-6.3,9.3-6.9,9.2c-0.6-0.1-6.2-7.2-6.2-8c0-0.5,7.6-11.9,8.1-12.1c0.3-0.1,0.3-0.2-0.1-0.2
	C308.5,235.7,306.7,238.1,304.3,241.6 M345.6,237.2c-5.4,2.7-11.1,8.4-12.3,12.3c-0.2,0.7-0.2,0.7,0.2,0c4.8-7.6,8.3-10.7,14.5-13
	c1.2-0.4,1.8-0.8,1.4-0.8C348.9,235.7,347.3,236.3,345.6,237.2 M367.9,236.2c6.9,2.6,15.7,10.4,15.7,13.7c0,0.2,0.2,0.5,0.4,0.7
	c1.6,1-2.4-5.3-5-7.8c-3.3-3.2-8.5-6.4-11.2-6.9l-1.2-0.2L367.9,236.2 M400.1,236.4c-0.3,0.3-0.4,2.2-0.4,6.3v5.8l2.2,2.1
	c1.2,1.1,3.4,3.1,4.8,4.4c1.4,1.3,3.6,3.2,4.8,4.3c2.8,2.6,4,3.6,4,3.1c0-0.2-0.2-0.5-0.5-0.6c-0.3-0.2-1-0.8-1.7-1.3
	c-0.6-0.6-3.5-3.1-6.3-5.6c-7.8-6.9-7-5.6-7-11.7c0-8.4,0-8.4,6.7-2.5c16.8,15.1,18.4,16.4,19.1,16.4l0.7,0l-0.7-0.2
	c-0.4-0.1-1.5-0.9-2.5-1.8c-1-0.9-2.4-2.2-3.2-2.8c-0.8-0.7-2.7-2.4-4.4-3.9c-1.6-1.5-3.4-3.1-4-3.5c-0.6-0.5-1.4-1.2-1.9-1.7
	C403.7,237.1,401.2,235.4,400.1,236.4 M447.7,237.6c-2.2,2.1-2.1,2.4,0.2,0.4c3.7-3.2,3.5-5.1,3.4,25.3c-0.1,13.9,0,25.2,0.2,25.2
	c0.5-0.3,0.3-51.5-0.2-52C450.5,235.7,449.4,236,447.7,237.6 M228.6,245.1c0,4.5,0,6.4,0.1,4.1c0.1-2.3,0.1-6,0-8.2
	C228.7,238.7,228.6,240.6,228.6,245.1 M4,262.3c0,13.8,0,19.4,0.1,12.5c0.1-6.9,0.1-18.2,0-25.1C4.1,242.9,4,248.5,4,262.3
	 M442.8,241.9c-2.5,2.3-3.7,3.3-12.1,10.8c-2.1,1.9-3.9,3.6-4,3.8c-0.1,0.2,0.4-0.1,1.1-0.7c1.7-1.6,15-13.5,16.6-14.8
	c0.7-0.6,1.3-1.2,1.2-1.3C445.5,239.6,444.3,240.6,442.8,241.9 M54.9,242.7c1.8,3.5,10.1,18.5,10.4,18.8c0.5,0.5-0.4-1.2-3.5-6.8
	c-1.4-2.6-3.2-5.8-3.9-7c-2.2-4.1-3.3-6-3.5-6C54.5,241.6,54.6,242.1,54.9,242.7 M67.4,242.9c0,0.2,0.2,0.7,0.5,1.1
	c0.3,0.4,0.5,0.5,0.5,0.3c0-0.2-0.2-0.7-0.5-1.1C67.6,242.8,67.4,242.7,67.4,242.9 M68.4,244.9c0,0.1,0.4,0.9,0.8,1.7
	c1.8,3.1,4.8,9.1,4.8,9.6c0,0.7-4.1,8.7-4.7,9.2c-0.8,0.7-1.5,0.2-2.5-1.7c-0.5-1-1-1.7-1.1-1.6c-0.3,0.3,1.7,3.4,2.4,3.9
	c1,0.6,1.6,0,4-4.6c2.8-5.3,2.8-4.7-0.4-10.9C69.2,245.6,68.4,244.3,68.4,244.9 M86,245.5c-0.2,0.4-0.3,0.8-0.2,0.9
	c0.1,0.1,0.4-0.2,0.6-0.6c0.2-0.4,0.3-0.8,0.2-0.9C86.5,244.8,86.2,245.1,86,245.5 M98,245.4c-0.1,0.3-0.3,0.8-0.4,1
	c-0.1,0.2,0.1,0,0.4-0.3c0.6-0.7,0.7-1.2,0.4-1.2C98.3,244.8,98.2,245.1,98,245.4 M356,245.1c-0.7,0.2,0.2,0.3,2.5,0.3
	c2.7,0,3.2-0.1,2.1-0.3C358.9,244.8,357.5,244.8,356,245.1 M352.9,245.7c-0.4,0.1-0.9,0.3-1.1,0.5c-0.4,0.4,1.4,0,2.3-0.4
	C354.7,245.5,354.1,245.4,352.9,245.7 M362.9,245.8c0.3,0.2,1,0.4,1.6,0.5l1.1,0.2l-1.1-0.5C363.3,245.5,361.9,245.3,362.9,245.8
	 M349.2,247.5c-3.3,2.1-5.9,5.6-7.2,9.4c-0.3,0.9-0.8,1.9-1.1,2.2c-0.5,0.4-0.5,0.5,0.1,0.4c0.4-0.1,0.9-0.9,1.5-2.4
	c1.4-4,4.7-8.2,7.6-9.6c1.2-0.6,1.6-0.9,1-0.9C350.9,246.5,350.1,247,349.2,247.5 M365.7,246.7c0,0.1,0.7,0.6,1.5,1
	c2.6,1.5,5.4,5,6.5,8.1c0.2,0.6,0.5,0.9,0.6,0.8c0.5-0.5-2.1-4.7-4-6.7C368.7,248.2,365.7,246.1,365.7,246.7 M83,251.4
	c-1.2,2.5-3.1,6.2-4.2,8.3c-2.1,4.2-2.5,5.1-2,4.6c0.7-0.7,9-17.4,8.7-17.4C85.4,246.9,84.3,248.9,83,251.4 M97,247.5
	c-0.1,0.3-0.3,0.8-0.4,1c-0.1,0.2,0.1,0,0.4-0.3c0.6-0.7,0.7-1.2,0.4-1.2C97.3,246.9,97.1,247.2,97,247.5 M91.6,258.2
	c-2.6,5.1-5.9,11.7-7.4,14.6c-1.5,3-2.7,5.5-2.6,5.6c0.1,0.1,2.1-3.6,4.4-8.2c2.3-4.6,5.6-11.2,7.4-14.6c1.8-3.5,3.1-6.4,3-6.4
	C96.3,249,94.1,253.1,91.6,258.2 M332.3,251.3c-1.8,4.8-2,7.9-0.5,8.1c0.5,0.1,0.5,0-0.1-0.3c-1.1-0.5-0.7-3.2,0.9-7.5
	c0.2-0.6,0.3-1.1,0.2-1.2C332.8,250.4,332.5,250.8,332.3,251.3 M384.5,252c0.5,1.9,0.9,2.6,0.7,1.1c-0.1-0.8-0.4-1.6-0.6-1.8
	C384.3,251,384.3,251.3,384.5,252 M295.4,255c-0.5,0.6-1.5,2.1-2.2,3.2c-0.7,1.2-1.5,2.2-1.6,2.3c-0.1,0.1-0.3,0.6-0.5,1.1
	c-0.1,0.5,1-1,2.5-3.2c3.3-5,3.6-5.1,5.9-1.9c1.4,2.1,2.7,3.8,10.1,14.1c9.8,13.7,11.6,16.3,11.5,17.1c-0.1,0.9-10.3,1.4-11.4,0.6
	c-0.5-0.4-12.2-16.5-16.4-22.6c-1.1-1.6-2.1-2.9-2.2-2.8c-0.1,0.1,0.3,0.8,1,1.7c0.6,0.8,2.9,4,5.1,7.1
	c8.3,11.6,11.6,16.1,12.2,16.7c0.9,0.9,11.1,1,12,0.1c0.9-0.9,0.9-1-11.3-17.9c-1.8-2.5-4.9-6.9-6.9-9.7c-2-2.8-4-5.5-4.4-6.1
	C297.6,253.6,296.4,253.6,295.4,255 M228.6,270.7c0,9.2,0,12.9,0.1,8.3c0.1-4.6,0.1-12.1,0-16.7
	C228.7,257.8,228.6,261.6,228.6,270.7 M385.5,256.3c0.1,1.4,0,2.1-0.4,2.5c-0.6,0.7-0.2,0.9,0.5,0.2c0.5-0.5,0.5-2.5,0-3.8
	C385.4,254.7,385.4,255,385.5,256.3 M20.8,257.1c-0.7,0.7-0.5,1.1,0.2,0.5c0.6-0.6,7.4-0.6,9.9,0c0.8,0.2,0.8,0.2,0.2-0.2
	C30.1,256.7,21.4,256.5,20.8,257.1 M233,257.2c-0.2,0.3-0.4,0.9-0.3,1.3c0.1,0.7,0.2,0.7,0.2-0.1c0.1-1.3,0.4-1.4,6.9-1.4
	c4.7,0,5.8,0.1,6.3,0.6c0.8,0.8,0.8,8.4,0,9.3c-0.6,0.7-0.2,0.9,0.5,0.2c0.8-0.8,0.6-9.2-0.2-9.9C245.5,256.5,233.7,256.4,233,257.2
	 M374.5,257.6c0,1,0.8,2.1,1.4,1.8c0.4-0.2,0.4-0.2-0.1-0.2c-0.3,0-0.7-0.5-0.9-1.2C374.6,257.2,374.5,257.1,374.5,257.6 M33.9,259
	c5.2,3.1,7.9,7.4,8.2,13.2c0.2,2.8,0.2,3.2,0.4,2c0.7-5.9-3.1-12.9-8.4-15.6C31.6,257.4,31.5,257.6,33.9,259 M400.1,258.2
	c-0.7,0.7-0.6,29.5,0.1,30.3c0.4,0.4,1.4,0.6,5.1,0.6c6.2,0,5.6,1.2,5.6-12.2v-11.1l-1.5-1.4c-3.4-3.3-7-6.4-7.5-6.5
	c-0.3-0.1,0,0.3,0.6,0.9c1.9,1.6,7.1,6.2,7.6,6.8c0.6,0.7,0.6,21.5,0.1,22.5c-0.4,0.8-9,1-9.7,0.3c-0.7-0.7-0.6-29.2,0.1-29.9
	c0.3-0.3,0.4-0.6,0.2-0.6S400.4,258,400.1,258.2 M194.8,263.6l-4.6,4.5v10.1c0,5.5,0.1,10.2,0.3,10.2c0.1,0.1,0.2-4.4,0.2-10
	l-0.1-10.2l4.2-4.2c3.4-3.4,4.3-4.2,5-4.1l0.8,0.1l0.1,13.8c0.1,9.9,0,14-0.3,14.3c-0.3,0.4-1.6,0.5-4.8,0.6l-4.4,0.1l4.3,0.1
	c6.4,0.2,5.7,1.9,5.6-14.7l-0.1-14.1l-0.8-0.5C199.3,259.1,199.2,259.2,194.8,263.6 M437,261.3c-1.1,1-2.6,2.3-3.2,2.9
	c-5.1,4.6-6.9,6.2-7.4,6.5c-0.7,0.4-2-0.5-6.8-4.9c-1.9-1.7-3.6-3.1-3.6-3.1c-0.1,0.1,0.6,0.7,1.4,1.5c9.5,8.6,7.8,8.2,13.4,3.1
	c8.4-7.6,8.8-7.9,9.5-7.3c0.4,0.4,0.5,2.4,0.5,14.2c0,10.2,0.1,13.9,0.4,14.2c0.3,0.3,1.8,0.4,5,0.3l4.6-0.1l-4.4-0.1
	c-5.9-0.1-5.3,1.4-5.3-14.4C441.1,257.8,441.1,257.7,437,261.3 M232.8,263.7c0,3.4,0.1,3.7,0.7,3.8c0.7,0.1,0.7,0.1,0.1-0.3
	c-0.5-0.4-0.6-1.2-0.7-3.8l-0.1-3.3L232.8,263.7 M75.5,266.2c-0.4,0.8-0.7,1.5-0.6,1.6c0.1,0.1,0.5-0.5,0.9-1.3
	c0.4-0.8,0.7-1.5,0.6-1.6C76.3,264.8,75.9,265.4,75.5,266.2 M331.1,265.3c-0.7,1.9,0.8,6.8,3.6,11.6c12,20.7,46.6,15.4,50.9-7.8
	c0.8-4.4,0.9-4.3-5.2-4.3h-5l-0.4,1c-0.2,0.5-0.5,1.6-0.7,2.4c-4.1,15-29,14-32.1-1.3c-0.4-2.1-0.5-2.1-5.8-2.1
	C332,264.8,331.2,264.9,331.1,265.3 M20.4,266.6c0,0.3,0.2,0.7,0.4,0.8c0.6,0.4,0.7,0,0.1-0.7C20.5,266.2,20.4,266.1,20.4,266.6
	 M27.7,267.8c0,0.1,0.5,0.4,1,0.7c5.7,2.9,2.8,9.4-4.3,9.6c-3.4,0.1-4.1,0.3-4.1,1.3c0,0.2,0.2,0.1,0.4-0.3c0.3-0.5,0.9-0.6,3.5-0.6
	c6.2,0,9.5-4.1,6.8-8.3C30,268.7,27.7,267,27.7,267.8 M73.4,270.3c-0.6,1.1-2.7,5.3-4.7,9.3c-3.8,7.4-4.1,8.2-3.3,8.9
	c0.6,0.6,10.1,0.6,10.9,0c0.7-0.5,5.3-9.4,5.1-9.6c-0.1-0.1-1.2,1.9-2.5,4.5c-2.8,5.7-2.1,5.2-7.8,5.2c-6.4,0-6.5-0.1-4.8-3.4
	c1.4-2.6,8-15.7,8.3-16.4C75.1,267.5,74.4,268.4,73.4,270.3 M41.6,277.1c-0.5,2.2-2.6,5.5-4.8,7.5c-2.2,2-2.5,2.2-5.7,3.4
	c-1.6,0.6-1.7,0.6-0.4,0.5c4.6-0.7,12-8.4,11.4-11.9C41.9,276,41.9,276.1,41.6,277.1 M20.4,288.2c0,0.6,1.3,0.8,4.9,0.7l3.3-0.1
	l-3.7-0.1c-2.3,0-3.9-0.2-4.1-0.5C20.5,287.9,20.4,287.9,20.4,288.2"/>
</svg>
