<?xml version="1.0" standalone="no"?>
<!DOCTYPE svg PUBLIC "-//W3C//DTD SVG 20010904//EN"
 "http://www.w3.org/TR/2001/REC-SVG-20010904/DTD/svg10.dtd">
<svg version="1.0" xmlns="http://www.w3.org/2000/svg"
 width="158.000000pt" height="101.000000pt" viewBox="0 0 158.000000 101.000000"
 preserveAspectRatio="xMidYMid meet">

<g transform="translate(0.000000,101.000000) scale(0.100000,-0.100000)"
fill="#000000" stroke="none">
<path d="M664 936 l-129 -73 -3 -102 -3 -102 93 51 c51 28 111 60 133 71 l40
21 102 -59 c97 -55 103 -60 103 -90 0 -18 -2 -33 -5 -33 -2 0 -49 25 -104 56
l-100 56 -130 -74 -131 -73 0 -75 0 -75 78 -42 c42 -24 100 -56 128 -72 l51
-30 124 70 c68 39 127 73 131 77 4 4 -51 40 -122 80 l-130 73 -102 -60 c-102
-59 -103 -59 -106 -34 -2 14 -1 30 1 37 3 7 50 38 106 70 l100 57 38 -20 c21
-10 78 -42 126 -70 49 -28 90 -51 93 -51 2 0 4 46 4 103 l0 103 -130 73 -129
72 -99 -55 c-54 -31 -101 -56 -105 -56 -4 0 -7 15 -7 33 0 30 5 35 97 87 54
30 102 56 108 58 6 1 67 -29 135 -68 114 -63 125 -68 128 -49 6 35 -4 44 -110
104 -56 32 -112 64 -124 72 -18 11 -33 5 -150 -61z"/>
<path d="M1198 185 c-26 -15 -46 -51 -33 -63 3 -3 12 -2 19 3 68 50 64 49 92
29 15 -11 33 -23 40 -29 18 -13 27 -1 19 24 -7 25 -54 51 -87 51 -13 -1 -35
-7 -50 -15z"/>
<path d="M0 100 c0 -73 3 -90 15 -90 12 0 15 17 15 90 0 73 -3 90 -15 90 -12
0 -15 -17 -15 -90z"/>
<path d="M60 175 c0 -10 10 -15 30 -15 20 0 30 5 30 15 0 10 -10 15 -30 15
-20 0 -30 -5 -30 -15z"/>
<path d="M198 141 c27 -49 42 -57 42 -21 0 36 -22 70 -46 70 l-22 0 26 -49z"/>
<path d="M262 105 c-23 -47 -42 -87 -42 -90 0 -3 8 -5 18 -5 12 0 30 26 60 85
23 47 42 87 42 90 0 3 -8 5 -18 5 -12 0 -30 -26 -60 -85z"/>
<path d="M400 100 c0 -73 3 -90 15 -90 12 0 15 17 15 90 0 73 -3 90 -15 90
-12 0 -15 -17 -15 -90z"/>
<path d="M460 175 c0 -8 9 -15 20 -15 11 0 20 7 20 15 0 8 -9 15 -20 15 -11 0
-20 -7 -20 -15z"/>
<path d="M560 103 l0 -87 65 64 c45 45 65 72 65 89 0 24 -3 22 -50 -24 l-50
-49 0 47 c0 35 -4 47 -15 47 -12 0 -15 -16 -15 -87z"/>
<path d="M760 100 c0 -73 3 -90 15 -90 12 0 15 17 15 90 0 73 -3 90 -15 90
-12 0 -15 -17 -15 -90z"/>
<path d="M870 100 c0 -83 1 -90 20 -90 19 0 20 7 20 90 0 83 -1 90 -20 90 -19
0 -20 -7 -20 -90z"/>
<path d="M970 100 c0 -73 3 -90 15 -90 12 0 15 17 15 90 0 73 -3 90 -15 90
-12 0 -15 -17 -15 -90z"/>
<path d="M1060 175 c-12 -15 -7 -45 8 -45 4 0 16 14 25 30 18 29 18 30 -1 30
-11 0 -25 -7 -32 -15z"/>
<path d="M1400 172 c0 -10 18 -36 40 -57 l41 -40 29 17 30 17 0 -49 c0 -43 3
-50 20 -50 19 0 20 7 20 90 0 50 -3 90 -6 90 -4 0 -24 -16 -46 -36 l-40 -36
-37 36 c-42 41 -51 44 -51 18z"/>
<path d="M1024 115 c-7 -17 39 -93 61 -101 34 -13 32 5 -6 59 -22 31 -43 57
-45 57 -3 0 -7 -7 -10 -15z"/>
<path d="M60 106 c0 -8 9 -18 20 -21 11 -3 20 -11 20 -17 0 -5 -9 -12 -20 -15
-26 -7 -27 -43 -1 -43 47 0 71 78 32 100 -28 14 -51 12 -51 -4z"/>
<path d="M810 105 c0 -8 9 -15 20 -15 11 0 20 7 20 15 0 8 -9 15 -20 15 -11 0
-20 -7 -20 -15z"/>
<path d="M1400 66 c0 -43 3 -56 15 -56 11 0 15 12 15 44 0 26 -6 48 -15 56
-13 11 -15 5 -15 -44z"/>
<path d="M672 98 c-18 -18 -16 -88 3 -88 11 0 15 12 15 50 0 55 0 56 -18 38z"/>
<path d="M1160 76 c0 -22 58 -66 86 -66 32 0 80 25 88 45 16 42 -2 46 -38 10
-14 -14 -34 -25 -46 -25 -11 0 -32 11 -46 25 -28 28 -44 32 -44 11z"/>
</g>
</svg>
